<?xml version="1.0" encoding="UTF-8" standalone="no"?>
<!DOCTYPE svg PUBLIC "-//W3C//DTD SVG 1.1//EN" "http://www.w3.org/Graphics/SVG/1.1/DTD/svg11.dtd">
<!-- Created with Vectornator (http://vectornator.io/) -->
<svg height="100%" stroke-miterlimit="10" style="fill-rule:nonzero;clip-rule:evenodd;stroke-linecap:round;stroke-linejoin:round;" version="1.1" viewBox="0 0 175 27" width="100%" xml:space="preserve" xmlns="http://www.w3.org/2000/svg" xmlns:vectornator="http://vectornator.io" xmlns:xlink="http://www.w3.org/1999/xlink">
<defs/>
<g id="Untitled" vectornator:layerName="Untitled">
<path d="M27.5625 0.225241C27.2891 0.0123868 26.9336-0.0548301 26.6 0.0459953C25.3313 0.42129 23.718 0.314863 21.6727 0.180429C20.3984 0.096408 18.9492 0.001184 17.2813 0.001184C15.9742 0.001184 14.8039 0.589332 14 1.52477C13.1961 0.589332 12.0258 0.001184 10.7188 0.001184C9.05081 0.001184 7.6016 0.096408 6.32191 0.180429C4.2766 0.314863 2.66333 0.415689 1.39458 0.0459953C1.06645-0.0548301 0.710985 0.0123868 0.437548 0.225241C0.164111 0.438094 4.88454e-05 0.768578 4.88454e-05 1.12147L4.88454e-05 19.707C-0.0054199 20.9057 0.448486 22.0315 1.27973 22.883C2.10551 23.7344 3.20473 24.1993 4.37504 24.1993L12.9063 24.1993C12.9063 24.8154 13.3985 25.3196 14 25.3196C14.6016 25.3196 15.0938 24.8154 15.0938 24.1993L15.0938 4.48232C15.0938 3.2444 16.0727 2.24175 17.2813 2.24175C18.8781 2.24175 20.2945 2.33137 21.5414 2.41539C23.1711 2.52182 24.5547 2.61144 25.8125 2.47141L25.8125 19.7182C25.8125 20.3343 26.3047 20.8384 26.9062 20.8384C27.5078 20.8384 28 20.3343 28 19.7182L28 1.12147C28 0.768578 27.8414 0.438094 27.5625 0.225241ZM2.18754 2.47141C3.44536 2.61144 4.82895 2.52182 6.45863 2.41539C7.7055 2.33137 9.12191 2.24175 10.7188 2.24175C11.9274 2.24175 12.9063 3.2444 12.9063 4.48232L12.9063 17.5336C12.7313 17.4944 12.5453 17.4776 12.3594 17.4776L4.37504 17.4776C3.16645 17.4776 2.18754 16.4749 2.18754 15.237L2.18754 2.47141ZM4.37504 21.9587C3.78989 21.9587 3.23754 21.7235 2.82739 21.2978C2.41723 20.8721 2.18754 20.3119 2.18754 19.707L2.18754 19.1132C2.83286 19.4941 3.5766 19.7182 4.37504 19.7182L12.3594 19.7182C12.6602 19.7182 12.9063 19.9702 12.9063 20.2783L12.9063 21.9587L4.37504 21.9587ZM21.5524 10.3414C21.3664 9.9773 21 9.75325 20.6008 9.74764C20.2016 9.74204 19.8297 9.9605 19.6328 10.3134L17.3688 14.4136C17.2758 14.5817 17.2266 14.7721 17.2266 14.9626L17.2266 23.6392C17.2266 25.4932 18.6977 27 20.5078 27C22.318 27 23.7891 25.4932 23.7891 23.6392L23.7891 14.9514C23.7891 14.7665 23.7453 14.5873 23.6633 14.4248L21.5524 10.3414ZM20.5516 13.1981L21.6016 15.2258L21.6016 21.1185L19.4141 21.1185L19.4141 15.265L20.5516 13.1981ZM20.5078 24.7594C19.9063 24.7594 19.4141 24.2553 19.4141 23.6392L19.4141 23.3591L21.6016 23.3591L21.6016 23.6392C21.6016 24.2553 21.1094 24.7594 20.5078 24.7594Z" fill="#f65d4e" fill-rule="nonzero" opacity="1" stroke="none" vectornator:layerName="path"/>
<g opacity="1" vectornator:layerName="g">
<path d="M43.4314 17.7159C44.3539 17.7159 45.1029 17.6143 45.6784 17.4112C46.7702 17.0219 47.3161 16.2982 47.3161 15.2403C47.3161 14.6224 47.0453 14.1443 46.5036 13.8057C45.962 13.4756 45.1114 13.1836 43.9519 12.9297L41.9714 12.4854C40.0248 12.0453 38.6791 11.5671 37.9343 11.0508C36.6732 10.1875 36.0427 8.83761 36.0427 7.00103C36.0427 5.32524 36.6521 3.93299 37.8708 2.82427C39.0896 1.71554 40.8796 1.16118 43.2409 1.16118C45.2129 1.16118 46.8951 1.68381 48.2873 2.72905C49.6796 3.7743 50.4095 5.29139 50.4773 7.28032L46.7194 7.28032C46.6517 6.15467 46.1608 5.35487 45.2468 4.88091C44.6374 4.56776 43.8799 4.41118 42.9743 4.41118C41.9672 4.41118 41.1631 4.61431 40.5622 5.02056C39.9613 5.42681 39.6608 5.99386 39.6608 6.72173C39.6608 7.39035 39.9571 7.8897 40.5495 8.21978C40.9304 8.43983 41.7429 8.69797 42.987 8.99419L46.2116 9.7686C47.625 10.1071 48.6914 10.5599 49.4108 11.127C50.528 12.0072 51.0866 13.281 51.0866 14.9483C51.0866 16.6579 50.4328 18.0777 49.1252 19.2076C47.8176 20.3375 45.9704 20.9024 43.5837 20.9024C41.1462 20.9024 39.2292 20.3459 37.8327 19.233C36.4362 18.12 35.738 16.5902 35.738 14.6436L39.4704 14.6436C39.5889 15.4984 39.8217 16.1374 40.1687 16.5606C40.8034 17.3308 41.891 17.7159 43.4314 17.7159Z" fill="#ffffff" fill-rule="nonzero" opacity="1" stroke="none" vectornator:layerName="path"/>
<path d="M61.0241 17.8428L61.0241 20.5469L59.3103 20.6104C57.6006 20.6696 56.4327 20.3734 55.8064 19.7217C55.4001 19.307 55.197 18.668 55.197 17.8047L55.197 9.28618L53.2673 9.28618L53.2673 6.70903L55.197 6.70903L55.197 2.84966L58.7771 2.84966L58.7771 6.70903L61.0241 6.70903L61.0241 9.28618L58.7771 9.28618L58.7771 16.5987C58.7771 17.1657 58.849 17.5191 58.9929 17.6587C59.1368 17.7984 59.5769 17.8682 60.3132 17.8682C60.4232 17.8682 60.5396 17.8661 60.6623 17.8619C60.785 17.8576 60.9056 17.8513 61.0241 17.8428Z" fill="#ffffff" fill-rule="nonzero" opacity="1" stroke="none" vectornator:layerName="path"/>
<path d="M75.8874 8.33403C77.0554 9.79823 77.6394 11.529 77.6394 13.5264C77.6394 15.5577 77.0554 17.2948 75.8874 18.7378C74.7194 20.1809 72.9463 20.9024 70.5681 20.9024C68.1898 20.9024 66.4167 20.1809 65.2487 18.7378C64.0808 17.2948 63.4968 15.5577 63.4968 13.5264C63.4968 11.529 64.0808 9.79823 65.2487 8.33403C66.4167 6.86984 68.1898 6.13774 70.5681 6.13774C72.9463 6.13774 74.7194 6.86984 75.8874 8.33403ZM70.5554 9.19731C69.4974 9.19731 68.6828 9.57183 68.1115 10.3208C67.5402 11.0699 67.2546 12.1384 67.2546 13.5264C67.2546 14.9144 67.5402 15.9851 68.1115 16.7383C68.6828 17.4916 69.4974 17.8682 70.5554 17.8682C71.6133 17.8682 72.4258 17.4916 72.9929 16.7383C73.5599 15.9851 73.8435 14.9144 73.8435 13.5264C73.8435 12.1384 73.5599 11.0699 72.9929 10.3208C72.4258 9.57183 71.6133 9.19731 70.5554 9.19731Z" fill="#ffffff" fill-rule="nonzero" opacity="1" stroke="none" vectornator:layerName="path"/>
<path d="M88.1862 9.92095C86.7305 9.92095 85.753 10.3949 85.2536 11.3428C84.9743 11.876 84.8347 12.697 84.8347 13.8057L84.8347 20.42L81.1911 20.42L81.1911 6.58208L84.6442 6.58208L84.6442 8.99419C85.2028 8.07166 85.6895 7.44113 86.1042 7.10259C86.7813 6.53553 87.6615 6.252 88.7448 6.252C88.8125 6.252 88.8697 6.25412 88.9162 6.25835C88.9628 6.26258 89.0664 6.26893 89.2273 6.27739L89.2273 9.98442C88.9987 9.95903 88.7956 9.94211 88.6179 9.93364C88.4401 9.92518 88.2963 9.92095 88.1862 9.92095Z" fill="#ffffff" fill-rule="nonzero" opacity="1" stroke="none" vectornator:layerName="path"/>
<path d="M97.9714 16.7891L100.828 6.58208L104.675 6.58208L99.9265 20.1915C99.0124 22.8152 98.2888 24.4423 97.7556 25.0728C97.2224 25.7033 96.156 26.0186 94.5564 26.0186C94.2347 26.0186 93.9766 26.0165 93.7819 26.0123C93.5873 26.008 93.2953 25.9932 92.906 25.9678L92.906 23.0733L93.363 23.0987C93.7185 23.1156 94.057 23.1029 94.3786 23.0606C94.7002 23.0183 94.9711 22.9209 95.1911 22.7686C95.4027 22.6247 95.5995 22.3243 95.7815 21.8672C95.9634 21.4102 96.0375 21.1309 96.0036 21.0293L90.9255 6.58208L94.9499 6.58208L97.9714 16.7891Z" fill="#ffffff" fill-rule="nonzero" opacity="1" stroke="none" vectornator:layerName="path"/>
<path d="M114.891 17.7159C115.814 17.7159 116.563 17.6143 117.138 17.4112C118.23 17.0219 118.776 16.2982 118.776 15.2403C118.776 14.6224 118.505 14.1443 117.964 13.8057C117.422 13.4756 116.571 13.1836 115.412 12.9297L113.431 12.4854C111.485 12.0453 110.139 11.5671 109.394 11.0508C108.133 10.1875 107.503 8.83761 107.503 7.00103C107.503 5.32524 108.112 3.93299 109.331 2.82427C110.55 1.71554 112.34 1.16118 114.701 1.16118C116.673 1.16118 118.355 1.68381 119.747 2.72905C121.14 3.7743 121.87 5.29139 121.937 7.28032L118.179 7.28032C118.112 6.15467 117.621 5.35487 116.707 4.88091C116.097 4.56776 115.34 4.41118 114.434 4.41118C113.427 4.41118 112.623 4.61431 112.022 5.02056C111.421 5.42681 111.121 5.99386 111.121 6.72173C111.121 7.39035 111.417 7.8897 112.009 8.21978C112.39 8.43983 113.203 8.69797 114.447 8.99419L117.672 9.7686C119.085 10.1071 120.151 10.5599 120.871 11.127C121.988 12.0072 122.547 13.281 122.547 14.9483C122.547 16.6579 121.893 18.0777 120.585 19.2076C119.278 20.3375 117.43 20.9024 115.044 20.9024C112.606 20.9024 110.689 20.3459 109.293 19.233C107.896 18.12 107.198 16.5902 107.198 14.6436L110.93 14.6436C111.049 15.4984 111.282 16.1374 111.629 16.5606C112.263 17.3308 113.351 17.7159 114.891 17.7159Z" fill="#ffffff" fill-rule="nonzero" opacity="1" stroke="none" vectornator:layerName="path"/>
<path d="M137.994 16.3575C137.901 17.1784 137.473 18.0121 136.712 18.8584C135.527 20.2042 133.868 20.877 131.735 20.877C129.975 20.877 128.422 20.3099 127.076 19.1758C125.73 18.0417 125.057 16.1967 125.057 13.6407C125.057 11.2455 125.665 9.4089 126.879 8.13091C128.094 6.85291 129.67 6.21392 131.608 6.21392C132.759 6.21392 133.796 6.42974 134.718 6.86138C135.641 7.29302 136.403 7.97433 137.004 8.90532C137.545 9.72629 137.897 10.6784 138.057 11.7618C138.15 12.3965 138.189 13.3106 138.172 14.504L128.701 14.504C128.752 15.892 129.188 16.8653 130.009 17.4239C130.508 17.7709 131.109 17.9444 131.811 17.9444C132.556 17.9444 133.161 17.7328 133.627 17.3096C133.881 17.0811 134.105 16.7637 134.3 16.3575L137.994 16.3575ZM134.414 12.1172C134.355 11.1609 134.065 10.4351 133.544 9.93999C133.024 9.44487 132.378 9.19731 131.608 9.19731C130.77 9.19731 130.121 9.45968 129.659 9.98442C129.198 10.5092 128.908 11.2201 128.79 12.1172L134.414 12.1172Z" fill="#ffffff" fill-rule="nonzero" opacity="1" stroke="none" vectornator:layerName="path"/>
<path d="M141.685 1.70708L145.303 1.70708L145.303 20.42L141.685 20.42L141.685 1.70708Z" fill="#ffffff" fill-rule="nonzero" opacity="1" stroke="none" vectornator:layerName="path"/>
<path d="M149.909 1.70708L153.527 1.70708L153.527 20.42L149.909 20.42L149.909 1.70708Z" fill="#ffffff" fill-rule="nonzero" opacity="1" stroke="none" vectornator:layerName="path"/>
<path d="M167.591 7.21685C168.674 7.91086 169.296 9.10422 169.457 10.7969L165.839 10.7969C165.788 10.3314 165.657 9.96326 165.445 9.69243C165.047 9.20155 164.37 8.9561 163.414 8.9561C162.627 8.9561 162.066 9.07882 161.732 9.32427C161.397 9.56971 161.23 9.85747 161.23 10.1875C161.23 10.6023 161.408 10.9027 161.763 11.0889C162.119 11.2836 163.376 11.6179 165.534 12.0918C166.973 12.4304 168.052 12.9424 168.771 13.628C169.482 14.322 169.838 15.1895 169.838 16.2305C169.838 17.6016 169.328 18.7209 168.308 19.5884C167.288 20.4559 165.712 20.8897 163.579 20.8897C161.404 20.8897 159.798 20.4305 158.761 19.5123C157.724 18.594 157.206 17.4239 157.206 16.002L160.875 16.002C160.951 16.6452 161.116 17.1023 161.37 17.3731C161.818 17.8555 162.648 18.0967 163.858 18.0967C164.569 18.0967 165.134 17.9909 165.553 17.7793C165.972 17.5678 166.181 17.2504 166.181 16.8272C166.181 16.4209 166.012 16.112 165.674 15.9004C165.335 15.6889 164.078 15.3249 161.903 14.8086C160.337 14.4193 159.233 13.9327 158.59 13.3487C157.946 12.7732 157.625 11.9437 157.625 10.8604C157.625 9.58241 158.126 8.48426 159.129 7.56597C160.132 6.64767 161.543 6.18853 163.363 6.18853C165.09 6.18853 166.499 6.5313 167.591 7.21685Z" fill="#ffffff" fill-rule="nonzero" opacity="1" stroke="none" vectornator:layerName="path"/>
</g>
</g>
</svg>
